# xmcd
#
# Track frame offsets: 
#        150
#        19640
#        40840
#        60236
#        74211
#        97386
#        115819
#        138711
#        162266
#        180489
#
# Disc length: 2774 seconds
#
# Revision: 0
# Processed by: cddbd v1.5.2PL0 Copyright (c) Steve Scherf et al.
# Submitted via: ExactAudioCopy v0.99pb5
#
DISCID=8d0ad40a
DTITLE=Tinsley Ellis - Tough Love
DYEAR=2015
DGENRE=Blues
TTITLE0=Seven Years
TTITLE1=Midnight Ride
TTITLE2=Give It Away
TTITLE3=Hard Work
TTITLE4=All In The Name Of Love
TTITLE5=Should I Have Lied
TTITLE6=Leave Me
TTITLE7=The King Must Die
TTITLE8=Everything
TTITLE9=In From The Cold
EXTD=
EXTT0=
EXTT1=
EXTT2=
EXTT3=
EXTT4=
EXTT5=
EXTT6=
EXTT7=
EXTT8=
EXTT9=
PLAYORDER=
